<?xml version="1.0" encoding="UTF-8"?>
<svg xmlns="http://www.w3.org/2000/svg" xmlns:xlink="http://www.w3.org/1999/xlink" width="1920" height="1080" viewBox="0 0 1920 1080">
<defs>
<g>
<g id="glyph-0-0">
<path d="M 0.261719 -1.683594 L 1.277344 -1.78125 C 1.335938 -1.441406 1.460938 -1.191406 1.648438 -1.03125 C 1.835938 -0.871094 2.085938 -0.789062 2.40625 -0.789062 C 2.742188 -0.789062 2.996094 -0.859375 3.164062 -1.003906 C 3.335938 -1.144531 3.421875 -1.3125 3.421875 -1.503906 C 3.421875 -1.625 3.386719 -1.730469 3.3125 -1.816406 C 3.242188 -1.898438 3.117188 -1.976562 2.9375 -2.039062 C 2.816406 -2.082031 2.535156 -2.15625 2.101562 -2.265625 C 1.542969 -2.402344 1.148438 -2.574219 0.925781 -2.777344 C 0.605469 -3.058594 0.449219 -3.40625 0.449219 -3.816406 C 0.449219 -4.078125 0.523438 -4.324219 0.671875 -4.554688 C 0.820312 -4.785156 1.035156 -4.957031 1.316406 -5.078125 C 1.597656 -5.199219 1.9375 -5.257812 2.335938 -5.257812 C 2.984375 -5.257812 3.472656 -5.117188 3.800781 -4.832031 C 4.128906 -4.546875 4.300781 -4.167969 4.316406 -3.691406 L 3.273438 -3.648438 C 3.226562 -3.914062 3.132812 -4.101562 2.984375 -4.21875 C 2.839844 -4.335938 2.617188 -4.394531 2.324219 -4.394531 C 2.019531 -4.394531 1.785156 -4.332031 1.613281 -4.207031 C 1.5 -4.128906 1.445312 -4.019531 1.445312 -3.886719 C 1.445312 -3.765625 1.496094 -3.660156 1.601562 -3.574219 C 1.734375 -3.460938 2.050781 -3.347656 2.558594 -3.226562 C 3.066406 -3.105469 3.445312 -2.984375 3.6875 -2.855469 C 3.929688 -2.726562 4.121094 -2.550781 4.257812 -2.328125 C 4.394531 -2.105469 4.464844 -1.832031 4.464844 -1.507812 C 4.464844 -1.210938 4.382812 -0.933594 4.21875 -0.671875 C 4.054688 -0.414062 3.820312 -0.222656 3.519531 -0.0976562 C 3.21875 0.0273438 2.84375 0.0898438 2.394531 0.0898438 C 1.742188 0.0898438 1.238281 -0.0585938 0.890625 -0.363281 C 0.539062 -0.664062 0.328125 -1.105469 0.261719 -1.683594 Z "/>
</g>
<g id="glyph-0-1">
<path d="M 0.527344 0 L 0.527344 -5.171875 L 4.359375 -5.171875 L 4.359375 -4.296875 L 1.570312 -4.296875 L 1.570312 -3.148438 L 4.164062 -3.148438 L 4.164062 -2.277344 L 1.570312 -2.277344 L 1.570312 -0.871094 L 4.457031 -0.871094 L 4.457031 0 Z "/>
</g>
<g id="glyph-0-2">
<path d="M 0.527344 0 L 0.527344 -5.171875 L 2.726562 -5.171875 C 3.277344 -5.171875 3.679688 -5.125 3.929688 -5.03125 C 4.179688 -4.9375 4.382812 -4.773438 4.53125 -4.535156 C 4.683594 -4.296875 4.757812 -4.027344 4.757812 -3.71875 C 4.757812 -3.332031 4.644531 -3.011719 4.414062 -2.757812 C 4.1875 -2.507812 3.847656 -2.347656 3.394531 -2.28125 C 3.617188 -2.148438 3.804688 -2.003906 3.953125 -1.847656 C 4.097656 -1.691406 4.296875 -1.410156 4.546875 -1.007812 L 5.175781 0 L 3.929688 0 L 3.175781 -1.125 C 2.90625 -1.527344 2.722656 -1.78125 2.625 -1.886719 C 2.523438 -1.988281 2.421875 -2.0625 2.308594 -2.101562 C 2.199219 -2.140625 2.023438 -2.160156 1.785156 -2.160156 L 1.574219 -2.160156 L 1.574219 0 L 0.527344 0 M 1.574219 -2.984375 L 2.34375 -2.984375 C 2.847656 -2.984375 3.160156 -3.003906 3.285156 -3.046875 C 3.40625 -3.089844 3.503906 -3.164062 3.574219 -3.265625 C 3.648438 -3.371094 3.683594 -3.5 3.683594 -3.652344 C 3.683594 -3.828125 3.636719 -3.96875 3.542969 -4.074219 C 3.449219 -4.183594 3.320312 -4.25 3.148438 -4.277344 C 3.066406 -4.289062 2.8125 -4.296875 2.386719 -4.296875 L 1.574219 -4.296875 Z "/>
</g>
<g id="glyph-0-3">
<path d="M 1.84375 0 L -0.00390625 -5.171875 L 1.128906 -5.171875 L 2.4375 -1.34375 L 3.703125 -5.171875 L 4.808594 -5.171875 L 2.957031 0 Z "/>
</g>
<g id="glyph-0-4">
</g>
<g id="glyph-0-5">
<path d="M 5.1875 0 L 4.050781 0 L 3.601562 -1.175781 L 1.535156 -1.175781 L 1.105469 0 L 0 0 L 2.015625 -5.171875 L 3.117188 -5.171875 L 5.1875 0 M 3.265625 -2.046875 L 2.554688 -3.964844 L 1.855469 -2.046875 Z "/>
</g>
<g id="glyph-0-6">
<path d="M 0.554688 0 L 0.554688 -5.128906 L 1.597656 -5.128906 L 1.597656 -0.871094 L 4.191406 -0.871094 L 4.191406 0 Z "/>
</g>
<g id="glyph-0-7">
<path d="M 0.492188 0 L 0.492188 -5.171875 L 1.539062 -5.171875 L 1.539062 0 Z "/>
</g>
<g id="glyph-0-8">
<path d="M 0.523438 -5.171875 L 2.429688 -5.171875 C 2.859375 -5.171875 3.1875 -5.136719 3.414062 -5.070312 C 3.71875 -4.980469 3.976562 -4.824219 4.191406 -4.59375 C 4.410156 -4.367188 4.574219 -4.089844 4.6875 -3.757812 C 4.800781 -3.425781 4.855469 -3.019531 4.855469 -2.535156 C 4.855469 -2.109375 4.804688 -1.742188 4.699219 -1.433594 C 4.566406 -1.058594 4.382812 -0.753906 4.144531 -0.523438 C 3.960938 -0.34375 3.71875 -0.207031 3.410156 -0.109375 C 3.179688 -0.0351562 2.871094 0 2.484375 0 L 0.523438 0 L 0.523438 -5.171875 M 1.566406 -4.296875 L 1.566406 -0.871094 L 2.34375 -0.871094 C 2.636719 -0.871094 2.847656 -0.886719 2.976562 -0.921875 C 3.144531 -0.960938 3.285156 -1.035156 3.398438 -1.136719 C 3.507812 -1.238281 3.601562 -1.402344 3.671875 -1.632812 C 3.742188 -1.867188 3.777344 -2.183594 3.777344 -2.582031 C 3.777344 -2.980469 3.742188 -3.289062 3.671875 -3.503906 C 3.601562 -3.714844 3.503906 -3.882812 3.375 -4.003906 C 3.25 -4.121094 3.085938 -4.203125 2.890625 -4.246094 C 2.746094 -4.277344 2.460938 -4.296875 2.035156 -4.296875 Z "/>
</g>
<g id="glyph-0-9">
<path d="M 1.6875 0 L 1.6875 -4.296875 L 0.15625 -4.296875 L 0.15625 -5.171875 L 4.265625 -5.171875 L 4.265625 -4.296875 L 2.734375 -4.296875 L 2.734375 0 Z "/>
</g>
<g id="glyph-0-10">
<path d="M 0.3125 -2.554688 C 0.3125 -3.078125 0.394531 -3.523438 0.550781 -3.878906 C 0.667969 -4.144531 0.828125 -4.378906 1.03125 -4.589844 C 1.234375 -4.796875 1.457031 -4.953125 1.699219 -5.054688 C 2.023438 -5.191406 2.394531 -5.257812 2.8125 -5.257812 C 3.574219 -5.257812 4.1875 -5.023438 4.644531 -4.550781 C 5.101562 -4.078125 5.328125 -3.417969 5.328125 -2.578125 C 5.328125 -1.742188 5.101562 -1.089844 4.648438 -0.617188 C 4.195312 -0.148438 3.585938 0.0898438 2.828125 0.0898438 C 2.058594 0.0898438 1.449219 -0.144531 0.996094 -0.617188 C 0.539062 -1.085938 0.3125 -1.730469 0.3125 -2.554688 M 1.390625 -2.589844 C 1.390625 -2.003906 1.523438 -1.558594 1.796875 -1.257812 C 2.066406 -0.957031 2.410156 -0.804688 2.824219 -0.804688 C 3.242188 -0.804688 3.582031 -0.953125 3.847656 -1.253906 C 4.117188 -1.554688 4.25 -2.003906 4.25 -2.601562 C 4.25 -3.195312 4.121094 -3.636719 3.859375 -3.929688 C 3.601562 -4.21875 3.253906 -4.367188 2.824219 -4.367188 C 2.394531 -4.367188 2.046875 -4.21875 1.785156 -3.921875 C 1.519531 -3.628906 1.390625 -3.183594 1.390625 -2.589844 Z "/>
</g>
<g id="glyph-0-11">
<path d="M 0.535156 0 L 0.535156 -5.171875 L 1.550781 -5.171875 L 3.667969 -1.71875 L 3.667969 -5.171875 L 4.636719 -5.171875 L 4.636719 0 L 3.589844 0 L 1.507812 -3.371094 L 1.507812 0 Z "/>
</g>
</g>
</defs>
<g fill="rgb(100%, 100%, 100%)" fill-opacity="1">
<use xlink:href="#glyph-0-0" x="30" y="26.538086"/>
<use xlink:href="#glyph-0-1" x="35" y="26.538086"/>
<use xlink:href="#glyph-0-2" x="40" y="26.538086"/>
<use xlink:href="#glyph-0-3" x="45" y="26.538086"/>
<use xlink:href="#glyph-0-1" x="50" y="26.538086"/>
<use xlink:href="#glyph-0-2" x="55" y="26.538086"/>
<use xlink:href="#glyph-0-4" x="60" y="26.538086"/>
<use xlink:href="#glyph-0-2" x="62" y="26.538086"/>
<use xlink:href="#glyph-0-1" x="67" y="26.538086"/>
<use xlink:href="#glyph-0-3" x="72" y="26.538086"/>
<use xlink:href="#glyph-0-5" x="76" y="26.538086"/>
<use xlink:href="#glyph-0-6" x="81" y="26.538086"/>
<use xlink:href="#glyph-0-7" x="85" y="26.538086"/>
<use xlink:href="#glyph-0-8" x="87" y="26.538086"/>
<use xlink:href="#glyph-0-5" x="92" y="26.538086"/>
<use xlink:href="#glyph-0-9" x="97" y="26.538086"/>
<use xlink:href="#glyph-0-7" x="101" y="26.538086"/>
<use xlink:href="#glyph-0-10" x="103" y="26.538086"/>
<use xlink:href="#glyph-0-11" x="109" y="26.538086"/>
</g>
</svg>
