<?xml version="1.0" encoding="UTF-8"?>
<svg xmlns="http://www.w3.org/2000/svg" xmlns:xlink="http://www.w3.org/1999/xlink" width="1920" height="1080" viewBox="0 0 1920 1080">
<defs>
<g>
<g id="glyph-0-0">
<path d="M 0.363281 -2.945312 C 0.363281 -3.554688 0.453125 -4.0625 0.632812 -4.476562 C 0.769531 -4.78125 0.957031 -5.050781 1.191406 -5.292969 C 1.425781 -5.535156 1.683594 -5.714844 1.960938 -5.832031 C 2.332031 -5.988281 2.761719 -6.066406 3.246094 -6.066406 C 4.125 -6.066406 4.828125 -5.792969 5.355469 -5.25 C 5.882812 -4.703125 6.148438 -3.945312 6.148438 -2.972656 C 6.148438 -2.011719 5.886719 -1.257812 5.363281 -0.714844 C 4.839844 -0.171875 4.140625 0.101562 3.261719 0.101562 C 2.375 0.101562 1.671875 -0.167969 1.148438 -0.710938 C 0.625 -1.25 0.363281 -1.996094 0.363281 -2.945312 M 1.601562 -2.988281 C 1.601562 -2.3125 1.757812 -1.800781 2.070312 -1.449219 C 2.382812 -1.101562 2.777344 -0.925781 3.257812 -0.925781 C 3.738281 -0.925781 4.132812 -1.101562 4.441406 -1.445312 C 4.75 -1.792969 4.902344 -2.3125 4.902344 -3.003906 C 4.902344 -3.6875 4.753906 -4.195312 4.453125 -4.53125 C 4.152344 -4.871094 3.753906 -5.039062 3.257812 -5.039062 C 2.761719 -5.039062 2.363281 -4.867188 2.058594 -4.527344 C 1.753906 -4.1875 1.601562 -3.671875 1.601562 -2.988281 Z "/>
</g>
<g id="glyph-0-1">
<path d="M 0.617188 0 L 0.617188 -5.964844 L 1.789062 -5.964844 L 4.230469 -1.980469 L 4.230469 -5.964844 L 5.351562 -5.964844 L 5.351562 0 L 4.140625 0 L 1.738281 -3.890625 L 1.738281 0 Z "/>
</g>
<g id="glyph-0-2">
<path d="M 0.605469 0 L 0.605469 -5.964844 L 5.027344 -5.964844 L 5.027344 -4.957031 L 1.8125 -4.957031 L 1.8125 -3.632812 L 4.804688 -3.632812 L 4.804688 -2.628906 L 1.8125 -2.628906 L 1.8125 -1.003906 L 5.144531 -1.003906 L 5.144531 0 Z "/>
</g>
<g id="glyph-0-3">
<path d="M 0.46875 -1.589844 L 0.46875 -2.734375 L 2.714844 -2.734375 L 2.714844 -1.589844 Z "/>
</g>
<g id="glyph-0-4">
<path d="M 1.949219 0 L 1.949219 -4.957031 L 0.179688 -4.957031 L 0.179688 -5.964844 L 4.917969 -5.964844 L 4.917969 -4.957031 L 3.152344 -4.957031 L 3.152344 0 Z "/>
</g>
<g id="glyph-0-5">
<path d="M 0.570312 0 L 0.570312 -5.964844 L 1.773438 -5.964844 L 1.773438 0 Z "/>
</g>
<g id="glyph-0-6">
<path d="M 0.589844 0 L 0.589844 -5.964844 L 2.390625 -5.964844 L 3.476562 -1.894531 L 4.546875 -5.964844 L 6.351562 -5.964844 L 6.351562 0 L 5.234375 0 L 5.234375 -4.695312 L 4.046875 0 L 2.890625 0 L 1.707031 -4.695312 L 1.707031 0 Z "/>
</g>
<g id="glyph-0-7">
</g>
<g id="glyph-0-8">
<path d="M 0.621094 0 L 0.621094 -5.964844 L 1.828125 -5.964844 L 1.828125 -3.316406 L 4.261719 -5.964844 L 5.878906 -5.964844 L 3.632812 -3.640625 L 6 0 L 4.441406 0 L 2.804688 -2.800781 L 1.828125 -1.800781 L 1.828125 0 Z "/>
</g>
</g>
</defs>
<g fill="rgb(100%, 100%, 100%)" fill-opacity="1">
<use xlink:href="#glyph-0-0" x="30" y="27.543945"/>
<use xlink:href="#glyph-0-1" x="36" y="27.543945"/>
<use xlink:href="#glyph-0-2" x="42" y="27.543945"/>
<use xlink:href="#glyph-0-3" x="48" y="27.543945"/>
<use xlink:href="#glyph-0-4" x="51" y="27.543945"/>
<use xlink:href="#glyph-0-5" x="56" y="27.543945"/>
<use xlink:href="#glyph-0-6" x="58" y="27.543945"/>
<use xlink:href="#glyph-0-2" x="65" y="27.543945"/>
<use xlink:href="#glyph-0-7" x="71" y="27.543945"/>
<use xlink:href="#glyph-0-4" x="73" y="27.543945"/>
<use xlink:href="#glyph-0-0" x="78" y="27.543945"/>
<use xlink:href="#glyph-0-8" x="84" y="27.543945"/>
<use xlink:href="#glyph-0-2" x="90" y="27.543945"/>
<use xlink:href="#glyph-0-1" x="96" y="27.543945"/>
</g>
</svg>
