<?xml version="1.0" encoding="UTF-8"?>
<svg xmlns="http://www.w3.org/2000/svg" xmlns:xlink="http://www.w3.org/1999/xlink" width="1920" height="1080" viewBox="0 0 1920 1080">
<defs>
<g>
<g id="glyph-0-0">
<path d="M 0.472656 0 L 0.472656 -4.375 L 2.121094 -4.375 C 2.410156 -4.375 2.632812 -4.359375 2.785156 -4.332031 C 3 -4.296875 3.183594 -4.226562 3.328125 -4.128906 C 3.472656 -4.027344 3.589844 -3.886719 3.675781 -3.707031 C 3.765625 -3.523438 3.808594 -3.324219 3.808594 -3.109375 C 3.808594 -2.738281 3.691406 -2.421875 3.457031 -2.164062 C 3.21875 -1.90625 2.789062 -1.777344 2.171875 -1.777344 L 1.050781 -1.777344 L 1.050781 0 L 0.472656 0 M 1.050781 -2.292969 L 2.179688 -2.292969 C 2.554688 -2.292969 2.820312 -2.363281 2.976562 -2.503906 C 3.136719 -2.644531 3.214844 -2.839844 3.214844 -3.089844 C 3.214844 -3.273438 3.167969 -3.429688 3.074219 -3.5625 C 2.980469 -3.691406 2.859375 -3.777344 2.710938 -3.820312 C 2.613281 -3.84375 2.433594 -3.859375 2.167969 -3.859375 L 1.050781 -3.859375 Z "/>
</g>
<g id="glyph-0-1">
<path d="M 0.480469 0 L 0.480469 -4.375 L 2.417969 -4.375 C 2.808594 -4.375 3.105469 -4.335938 3.308594 -4.257812 C 3.511719 -4.175781 3.675781 -4.039062 3.796875 -3.839844 C 3.917969 -3.640625 3.976562 -3.421875 3.976562 -3.179688 C 3.976562 -2.871094 3.875 -2.609375 3.675781 -2.394531 C 3.476562 -2.183594 3.164062 -2.046875 2.746094 -1.988281 C 2.898438 -1.917969 3.015625 -1.84375 3.09375 -1.773438 C 3.261719 -1.617188 3.421875 -1.421875 3.574219 -1.191406 L 4.335938 0 L 3.605469 0 L 3.027344 -0.910156 C 2.859375 -1.171875 2.71875 -1.375 2.609375 -1.511719 C 2.5 -1.652344 2.402344 -1.75 2.316406 -1.804688 C 2.230469 -1.859375 2.140625 -1.898438 2.054688 -1.921875 C 1.988281 -1.933594 1.878906 -1.941406 1.730469 -1.941406 L 1.058594 -1.941406 L 1.058594 0 L 0.480469 0 M 1.058594 -2.445312 L 2.304688 -2.445312 C 2.566406 -2.445312 2.773438 -2.472656 2.925781 -2.527344 C 3.074219 -2.582031 3.1875 -2.667969 3.265625 -2.789062 C 3.339844 -2.910156 3.378906 -3.039062 3.378906 -3.179688 C 3.378906 -3.386719 3.304688 -3.558594 3.15625 -3.691406 C 3.003906 -3.824219 2.769531 -3.890625 2.445312 -3.890625 L 1.058594 -3.890625 Z "/>
</g>
<g id="glyph-0-2">
<path d="M 0.484375 0 L 0.484375 -4.375 L 3.644531 -4.375 L 3.644531 -3.859375 L 1.0625 -3.859375 L 1.0625 -2.519531 L 3.480469 -2.519531 L 3.480469 -2.003906 L 1.0625 -2.003906 L 1.0625 -0.515625 L 3.746094 -0.515625 L 3.746094 0 Z "/>
</g>
<g id="glyph-0-3">
<path d="M -0.0078125 0 L 1.671875 -4.375 L 2.292969 -4.375 L 4.085938 0 L 3.425781 0 L 2.914062 -1.324219 L 1.085938 -1.324219 L 0.605469 0 L -0.0078125 0 M 1.253906 -1.796875 L 2.734375 -1.796875 L 2.28125 -3.007812 C 2.140625 -3.375 2.035156 -3.679688 1.96875 -3.914062 C 1.914062 -3.632812 1.835938 -3.355469 1.734375 -3.078125 Z "/>
</g>
</g>
</defs>
<g fill="rgb(100%, 100%, 100%)" fill-opacity="1">
<use xlink:href="#glyph-0-0" x="30" y="25.53125"/>
<use xlink:href="#glyph-0-1" x="34" y="25.53125"/>
<use xlink:href="#glyph-0-2" x="38" y="25.53125"/>
<use xlink:href="#glyph-0-0" x="42" y="25.53125"/>
<use xlink:href="#glyph-0-3" x="46" y="25.53125"/>
<use xlink:href="#glyph-0-1" x="50" y="25.53125"/>
<use xlink:href="#glyph-0-2" x="54" y="25.53125"/>
</g>
</svg>
