<?xml version="1.0" encoding="UTF-8"?>
<svg xmlns="http://www.w3.org/2000/svg" xmlns:xlink="http://www.w3.org/1999/xlink" width="1920" height="1080" viewBox="0 0 1920 1080">
<defs>
<g>
<g id="glyph-0-0">
<path d="M 0.449219 0 L 0.449219 -4.375 L 1.027344 -4.375 L 1.027344 -0.515625 L 3.179688 -0.515625 L 3.179688 0 Z "/>
</g>
<g id="glyph-0-1">
<path d="M -0.0078125 0 L 1.671875 -4.375 L 2.292969 -4.375 L 4.085938 0 L 3.425781 0 L 2.914062 -1.324219 L 1.085938 -1.324219 L 0.605469 0 L -0.0078125 0 M 1.253906 -1.796875 L 2.734375 -1.796875 L 2.28125 -3.007812 C 2.140625 -3.375 2.035156 -3.679688 1.96875 -3.914062 C 1.914062 -3.632812 1.835938 -3.355469 1.734375 -3.078125 Z "/>
</g>
<g id="glyph-0-2">
<path d="M 0.464844 0 L 0.464844 -4.375 L 1.058594 -4.375 L 3.355469 -0.941406 L 3.355469 -4.375 L 3.910156 -4.375 L 3.910156 0 L 3.316406 0 L 1.019531 -3.4375 L 1.019531 0 Z "/>
</g>
<g id="glyph-0-3">
<path d="M 3.59375 -1.535156 L 4.171875 -1.386719 C 4.050781 -0.910156 3.832031 -0.550781 3.515625 -0.300781 C 3.199219 -0.0507812 2.816406 0.0742188 2.359375 0.0742188 C 1.890625 0.0742188 1.503906 -0.0195312 1.210938 -0.214844 C 0.914062 -0.40625 0.691406 -0.683594 0.535156 -1.046875 C 0.382812 -1.410156 0.304688 -1.800781 0.304688 -2.21875 C 0.304688 -2.675781 0.390625 -3.074219 0.566406 -3.410156 C 0.738281 -3.75 0.988281 -4.007812 1.308594 -4.183594 C 1.628906 -4.359375 1.984375 -4.449219 2.367188 -4.449219 C 2.808594 -4.449219 3.175781 -4.335938 3.472656 -4.113281 C 3.769531 -3.890625 3.980469 -3.578125 4.097656 -3.175781 L 3.527344 -3.039062 C 3.425781 -3.359375 3.277344 -3.589844 3.085938 -3.734375 C 2.890625 -3.878906 2.648438 -3.953125 2.355469 -3.953125 C 2.019531 -3.953125 1.738281 -3.871094 1.515625 -3.710938 C 1.289062 -3.550781 1.128906 -3.335938 1.039062 -3.0625 C 0.945312 -2.792969 0.902344 -2.511719 0.902344 -2.222656 C 0.902344 -1.851562 0.957031 -1.527344 1.0625 -1.25 C 1.171875 -0.972656 1.339844 -0.765625 1.570312 -0.625 C 1.796875 -0.488281 2.046875 -0.421875 2.3125 -0.421875 C 2.636719 -0.421875 2.910156 -0.515625 3.136719 -0.703125 C 3.359375 -0.886719 3.511719 -1.164062 3.59375 -1.535156 Z "/>
</g>
<g id="glyph-0-4">
<path d="M 0.484375 0 L 0.484375 -4.375 L 3.644531 -4.375 L 3.644531 -3.859375 L 1.0625 -3.859375 L 1.0625 -2.519531 L 3.480469 -2.519531 L 3.480469 -2.003906 L 1.0625 -2.003906 L 1.0625 -0.515625 L 3.746094 -0.515625 L 3.746094 0 Z "/>
</g>
<g id="glyph-0-5">
<path d="M 0.472656 0 L 0.472656 -4.375 L 1.976562 -4.375 C 2.316406 -4.375 2.578125 -4.351562 2.757812 -4.3125 C 3.007812 -4.253906 3.222656 -4.148438 3.398438 -4 C 3.628906 -3.804688 3.800781 -3.554688 3.917969 -3.25 C 4.03125 -2.949219 4.085938 -2.601562 4.085938 -2.210938 C 4.085938 -1.878906 4.050781 -1.585938 3.972656 -1.328125 C 3.894531 -1.070312 3.792969 -0.859375 3.671875 -0.691406 C 3.550781 -0.523438 3.417969 -0.390625 3.273438 -0.292969 C 3.128906 -0.199219 2.957031 -0.125 2.753906 -0.0742188 C 2.546875 -0.0234375 2.3125 0 2.050781 0 L 0.472656 0 M 1.050781 -0.515625 L 1.984375 -0.515625 C 2.273438 -0.515625 2.5 -0.542969 2.664062 -0.597656 C 2.828125 -0.652344 2.957031 -0.726562 3.054688 -0.824219 C 3.191406 -0.960938 3.300781 -1.144531 3.375 -1.378906 C 3.453125 -1.609375 3.492188 -1.890625 3.492188 -2.21875 C 3.492188 -2.675781 3.414062 -3.027344 3.265625 -3.273438 C 3.117188 -3.519531 2.933594 -3.683594 2.71875 -3.769531 C 2.5625 -3.828125 2.3125 -3.859375 1.96875 -3.859375 L 1.050781 -3.859375 Z "/>
</g>
<g id="glyph-0-6">
<path d="M 0.449219 0 L 0.449219 -4.375 L 2.089844 -4.375 C 2.421875 -4.375 2.691406 -4.328125 2.894531 -4.242188 C 3.09375 -4.152344 3.253906 -4.015625 3.367188 -3.832031 C 3.480469 -3.648438 3.539062 -3.457031 3.539062 -3.253906 C 3.539062 -3.066406 3.488281 -2.890625 3.386719 -2.726562 C 3.285156 -2.5625 3.132812 -2.429688 2.925781 -2.328125 C 3.191406 -2.25 3.394531 -2.117188 3.539062 -1.929688 C 3.679688 -1.742188 3.75 -1.523438 3.75 -1.269531 C 3.75 -1.0625 3.707031 -0.871094 3.621094 -0.695312 C 3.535156 -0.519531 3.425781 -0.386719 3.300781 -0.289062 C 3.171875 -0.195312 3.011719 -0.121094 2.820312 -0.0742188 C 2.628906 -0.0234375 2.394531 0 2.117188 0 L 0.449219 0 M 1.027344 -2.535156 L 1.972656 -2.535156 C 2.230469 -2.535156 2.414062 -2.554688 2.523438 -2.585938 C 2.671875 -2.628906 2.78125 -2.703125 2.855469 -2.804688 C 2.929688 -2.90625 2.96875 -3.035156 2.96875 -3.1875 C 2.96875 -3.332031 2.933594 -3.460938 2.863281 -3.570312 C 2.792969 -3.679688 2.695312 -3.757812 2.566406 -3.796875 C 2.4375 -3.835938 2.214844 -3.859375 1.902344 -3.859375 L 1.027344 -3.859375 L 1.027344 -2.535156 M 1.027344 -0.515625 L 2.117188 -0.515625 C 2.300781 -0.515625 2.433594 -0.523438 2.507812 -0.535156 C 2.644531 -0.5625 2.753906 -0.601562 2.84375 -0.65625 C 2.933594 -0.710938 3.007812 -0.792969 3.0625 -0.898438 C 3.121094 -1.007812 3.152344 -1.128906 3.152344 -1.269531 C 3.152344 -1.429688 3.109375 -1.574219 3.027344 -1.691406 C 2.941406 -1.8125 2.824219 -1.898438 2.679688 -1.945312 C 2.53125 -1.996094 2.316406 -2.019531 2.039062 -2.019531 L 1.027344 -2.019531 Z "/>
</g>
<g id="glyph-0-7">
</g>
<g id="glyph-0-8">
<path d="M 1.53125 -0.707031 L 1.53125 -1.90625 L 0.339844 -1.90625 L 0.339844 -2.40625 L 1.53125 -2.40625 L 1.53125 -3.597656 L 2.039062 -3.597656 L 2.039062 -2.40625 L 3.226562 -2.40625 L 3.226562 -1.90625 L 2.039062 -1.90625 L 2.039062 -0.707031 Z "/>
</g>
<g id="glyph-0-9">
<path d="M 0.273438 -1.40625 L 0.820312 -1.453125 C 0.847656 -1.234375 0.90625 -1.054688 1 -0.914062 C 1.09375 -0.773438 1.242188 -0.660156 1.441406 -0.574219 C 1.640625 -0.488281 1.863281 -0.445312 2.113281 -0.445312 C 2.332031 -0.445312 2.527344 -0.476562 2.699219 -0.542969 C 2.867188 -0.609375 2.992188 -0.699219 3.074219 -0.8125 C 3.15625 -0.925781 3.199219 -1.050781 3.199219 -1.1875 C 3.199219 -1.324219 3.160156 -1.445312 3.078125 -1.546875 C 3 -1.648438 2.867188 -1.734375 2.683594 -1.804688 C 2.566406 -1.851562 2.308594 -1.921875 1.90625 -2.019531 C 1.503906 -2.113281 1.222656 -2.207031 1.0625 -2.292969 C 0.851562 -2.402344 0.699219 -2.535156 0.59375 -2.699219 C 0.492188 -2.859375 0.441406 -3.042969 0.441406 -3.242188 C 0.441406 -3.464844 0.503906 -3.671875 0.628906 -3.863281 C 0.753906 -4.054688 0.9375 -4.199219 1.179688 -4.300781 C 1.417969 -4.398438 1.6875 -4.449219 1.980469 -4.449219 C 2.304688 -4.449219 2.589844 -4.398438 2.839844 -4.292969 C 3.085938 -4.1875 3.277344 -4.035156 3.410156 -3.832031 C 3.542969 -3.628906 3.617188 -3.398438 3.625 -3.140625 L 3.070312 -3.101562 C 3.039062 -3.375 2.941406 -3.585938 2.765625 -3.726562 C 2.59375 -3.867188 2.339844 -3.9375 2.003906 -3.9375 C 1.65625 -3.9375 1.398438 -3.875 1.238281 -3.746094 C 1.078125 -3.617188 1 -3.464844 1 -3.28125 C 1 -3.125 1.054688 -2.996094 1.167969 -2.894531 C 1.28125 -2.792969 1.570312 -2.6875 2.042969 -2.582031 C 2.511719 -2.476562 2.835938 -2.382812 3.011719 -2.304688 C 3.265625 -2.1875 3.453125 -2.039062 3.574219 -1.855469 C 3.695312 -1.675781 3.757812 -1.46875 3.757812 -1.234375 C 3.757812 -1.003906 3.691406 -0.785156 3.554688 -0.578125 C 3.421875 -0.371094 3.230469 -0.210938 2.980469 -0.0976562 C 2.734375 0.015625 2.453125 0.0742188 2.140625 0.0742188 C 1.742188 0.0742188 1.410156 0.015625 1.144531 -0.0976562 C 0.875 -0.214844 0.667969 -0.386719 0.515625 -0.617188 C 0.363281 -0.851562 0.28125 -1.113281 0.273438 -1.40625 Z "/>
</g>
<g id="glyph-0-10">
<path d="M 3.785156 -0.46875 C 4.054688 -0.285156 4.300781 -0.148438 4.53125 -0.0625 L 4.359375 0.339844 C 4.046875 0.226562 3.730469 0.046875 3.417969 -0.195312 C 3.09375 -0.015625 2.738281 0.0742188 2.34375 0.0742188 C 1.949219 0.0742188 1.589844 -0.0195312 1.269531 -0.210938 C 0.945312 -0.402344 0.699219 -0.671875 0.523438 -1.015625 C 0.347656 -1.363281 0.261719 -1.753906 0.261719 -2.1875 C 0.261719 -2.617188 0.351562 -3.011719 0.523438 -3.367188 C 0.699219 -3.71875 0.949219 -3.988281 1.273438 -4.175781 C 1.597656 -4.359375 1.957031 -4.453125 2.355469 -4.453125 C 2.761719 -4.453125 3.125 -4.355469 3.449219 -4.164062 C 3.773438 -3.972656 4.019531 -3.703125 4.191406 -3.359375 C 4.359375 -3.011719 4.445312 -2.625 4.445312 -2.191406 C 4.445312 -1.828125 4.390625 -1.507812 4.28125 -1.21875 C 4.171875 -0.929688 4.007812 -0.679688 3.785156 -0.46875 M 2.511719 -1.207031 C 2.847656 -1.113281 3.121094 -0.976562 3.339844 -0.789062 C 3.679688 -1.101562 3.847656 -1.566406 3.847656 -2.191406 C 3.847656 -2.542969 3.789062 -2.851562 3.667969 -3.117188 C 3.546875 -3.382812 3.371094 -3.589844 3.140625 -3.734375 C 2.910156 -3.878906 2.648438 -3.953125 2.359375 -3.953125 C 1.929688 -3.953125 1.570312 -3.804688 1.285156 -3.511719 C 1 -3.214844 0.859375 -2.773438 0.859375 -2.1875 C 0.859375 -1.617188 1 -1.179688 1.28125 -0.878906 C 1.5625 -0.574219 1.921875 -0.421875 2.359375 -0.421875 C 2.566406 -0.421875 2.761719 -0.460938 2.945312 -0.535156 C 2.765625 -0.65625 2.574219 -0.738281 2.371094 -0.789062 Z "/>
</g>
<g id="glyph-0-11">
<path d="M 0.570312 0 L 0.570312 -4.375 L 1.148438 -4.375 L 1.148438 0 Z "/>
</g>
<g id="glyph-0-12">
<path d="M 1.585938 0 L 1.585938 -3.859375 L 0.144531 -3.859375 L 0.144531 -4.375 L 3.609375 -4.375 L 3.609375 -3.859375 L 2.164062 -3.859375 L 2.164062 0 Z "/>
</g>
</g>
</defs>
<g fill="rgb(100%, 100%, 100%)" fill-opacity="1">
<use xlink:href="#glyph-0-0" x="30" y="25.53125"/>
<use xlink:href="#glyph-0-1" x="33" y="25.53125"/>
<use xlink:href="#glyph-0-2" x="37" y="25.53125"/>
<use xlink:href="#glyph-0-3" x="41" y="25.53125"/>
<use xlink:href="#glyph-0-4" x="45" y="25.53125"/>
<use xlink:href="#glyph-0-5" x="49" y="25.53125"/>
<use xlink:href="#glyph-0-6" x="53" y="25.53125"/>
<use xlink:href="#glyph-0-7" x="57" y="25.53125"/>
<use xlink:href="#glyph-0-8" x="59" y="25.53125"/>
<use xlink:href="#glyph-0-7" x="63" y="25.53125"/>
<use xlink:href="#glyph-0-9" x="65" y="25.53125"/>
<use xlink:href="#glyph-0-10" x="69" y="25.53125"/>
<use xlink:href="#glyph-0-0" x="74" y="25.53125"/>
<use xlink:href="#glyph-0-11" x="77" y="25.53125"/>
<use xlink:href="#glyph-0-12" x="79" y="25.53125"/>
<use xlink:href="#glyph-0-4" x="83" y="25.53125"/>
</g>
</svg>
