<?xml version="1.0" encoding="UTF-8"?>
<svg xmlns="http://www.w3.org/2000/svg" xmlns:xlink="http://www.w3.org/1999/xlink" width="1920" height="1080" viewBox="0 0 1920 1080">
<defs>
<g>
<g id="glyph-0-0">
<path d="M 0.734375 -7.15625 L 3.59375 -7.15625 C 4.160156 -7.15625 4.582031 -7.132812 4.859375 -7.085938 C 5.140625 -7.039062 5.386719 -6.941406 5.609375 -6.792969 C 5.828125 -6.640625 6.011719 -6.441406 6.15625 -6.195312 C 6.304688 -5.945312 6.375 -5.664062 6.375 -5.355469 C 6.375 -5.019531 6.285156 -4.714844 6.105469 -4.433594 C 5.925781 -4.152344 5.679688 -3.945312 5.371094 -3.804688 C 5.808594 -3.675781 6.140625 -3.460938 6.375 -3.15625 C 6.609375 -2.847656 6.726562 -2.488281 6.726562 -2.074219 C 6.726562 -1.75 6.652344 -1.433594 6.5 -1.125 C 6.351562 -0.816406 6.144531 -0.570312 5.882812 -0.386719 C 5.621094 -0.203125 5.296875 -0.0898438 4.914062 -0.046875 C 4.671875 -0.0234375 4.089844 -0.0078125 3.167969 0 L 0.734375 0 L 0.734375 -7.15625 M 2.179688 -5.96875 L 2.179688 -4.3125 L 3.125 -4.3125 C 3.6875 -4.3125 4.039062 -4.320312 4.175781 -4.335938 C 4.421875 -4.363281 4.617188 -4.449219 4.757812 -4.59375 C 4.898438 -4.734375 4.96875 -4.921875 4.96875 -5.152344 C 4.96875 -5.371094 4.910156 -5.550781 4.789062 -5.691406 C 4.664062 -5.828125 4.484375 -5.914062 4.242188 -5.941406 C 4.101562 -5.957031 3.6875 -5.96875 3.007812 -5.96875 L 2.179688 -5.96875 M 2.179688 -3.121094 L 2.179688 -1.207031 L 3.515625 -1.207031 C 4.035156 -1.207031 4.367188 -1.21875 4.507812 -1.25 C 4.722656 -1.289062 4.898438 -1.382812 5.03125 -1.535156 C 5.167969 -1.6875 5.234375 -1.890625 5.234375 -2.144531 C 5.234375 -2.359375 5.183594 -2.539062 5.078125 -2.691406 C 4.972656 -2.839844 4.824219 -2.949219 4.625 -3.015625 C 4.429688 -3.085938 4.003906 -3.121094 3.34375 -3.121094 Z "/>
</g>
<g id="glyph-0-1">
<path d="M 0.726562 0 L 0.726562 -7.15625 L 6.035156 -7.15625 L 6.035156 -5.945312 L 2.171875 -5.945312 L 2.171875 -4.359375 L 5.765625 -4.359375 L 5.765625 -3.15625 L 2.171875 -3.15625 L 2.171875 -1.207031 L 6.171875 -1.207031 L 6.171875 0 Z "/>
</g>
<g id="glyph-0-2">
<path d="M 0.738281 0 L 0.738281 -7.15625 L 5.644531 -7.15625 L 5.644531 -5.945312 L 2.183594 -5.945312 L 2.183594 -4.253906 L 5.171875 -4.253906 L 5.171875 -3.042969 L 2.183594 -3.042969 L 2.183594 0 Z "/>
</g>
<g id="glyph-0-3">
<path d="M 0.433594 -3.535156 C 0.433594 -4.265625 0.542969 -4.875 0.761719 -5.371094 C 0.925781 -5.734375 1.148438 -6.0625 1.429688 -6.351562 C 1.710938 -6.640625 2.019531 -6.855469 2.351562 -6.996094 C 2.800781 -7.1875 3.3125 -7.28125 3.898438 -7.28125 C 4.949219 -7.28125 5.796875 -6.953125 6.429688 -6.296875 C 7.0625 -5.644531 7.378906 -4.734375 7.378906 -3.570312 C 7.378906 -2.414062 7.0625 -1.507812 6.4375 -0.855469 C 5.808594 -0.203125 4.96875 0.121094 3.914062 0.121094 C 2.851562 0.121094 2.003906 -0.203125 1.375 -0.851562 C 0.75 -1.5 0.433594 -2.394531 0.433594 -3.535156 M 1.921875 -3.585938 C 1.921875 -2.773438 2.109375 -2.160156 2.484375 -1.742188 C 2.859375 -1.324219 3.335938 -1.113281 3.910156 -1.113281 C 4.488281 -1.113281 4.960938 -1.320312 5.328125 -1.734375 C 5.699219 -2.152344 5.882812 -2.773438 5.882812 -3.601562 C 5.882812 -4.421875 5.703125 -5.035156 5.34375 -5.4375 C 4.984375 -5.84375 4.507812 -6.046875 3.910156 -6.046875 C 3.316406 -6.046875 2.835938 -5.839844 2.46875 -5.433594 C 2.105469 -5.023438 1.921875 -4.40625 1.921875 -3.585938 Z "/>
</g>
<g id="glyph-0-4">
<path d="M 0.734375 0 L 0.734375 -7.15625 L 3.773438 -7.15625 C 4.539062 -7.15625 5.09375 -7.09375 5.441406 -6.964844 C 5.789062 -6.835938 6.066406 -6.609375 6.273438 -6.28125 C 6.484375 -5.949219 6.585938 -5.574219 6.585938 -5.152344 C 6.585938 -4.613281 6.429688 -4.171875 6.113281 -3.820312 C 5.796875 -3.472656 5.324219 -3.25 4.695312 -3.160156 C 5.007812 -2.976562 5.269531 -2.777344 5.472656 -2.558594 C 5.675781 -2.339844 5.949219 -1.953125 6.292969 -1.398438 L 7.167969 0 L 5.4375 0 L 4.394531 -1.558594 C 4.023438 -2.113281 3.769531 -2.464844 3.632812 -2.609375 C 3.496094 -2.753906 3.351562 -2.855469 3.199219 -2.90625 C 3.046875 -2.960938 2.804688 -2.988281 2.46875 -2.988281 L 2.179688 -2.988281 L 2.179688 0 L 0.734375 0 M 2.179688 -4.132812 L 3.246094 -4.132812 C 3.941406 -4.128906 4.375 -4.160156 4.546875 -4.21875 C 4.71875 -4.277344 4.851562 -4.378906 4.953125 -4.523438 C 5.046875 -4.664062 5.097656 -4.84375 5.097656 -5.058594 C 5.097656 -5.300781 5.035156 -5.492188 4.90625 -5.640625 C 4.777344 -5.789062 4.59375 -5.882812 4.359375 -5.921875 C 4.242188 -5.9375 3.890625 -5.945312 3.304688 -5.945312 L 2.179688 -5.945312 Z "/>
</g>
<g id="glyph-0-5">
</g>
<g id="glyph-0-6">
<path d="M 0.976562 -2.796875 L 0.976562 -4.171875 L 2.347656 -4.171875 L 2.347656 -2.796875 Z "/>
</g>
<g id="glyph-0-7">
<path d="M 5.308594 -2.632812 L 6.710938 -2.1875 C 6.492188 -1.40625 6.136719 -0.824219 5.636719 -0.445312 C 5.136719 -0.0664062 4.503906 0.121094 3.734375 0.121094 C 2.785156 0.121094 2.003906 -0.203125 1.390625 -0.851562 C 0.78125 -1.5 0.472656 -2.390625 0.472656 -3.515625 C 0.472656 -4.707031 0.78125 -5.632812 1.398438 -6.292969 C 2.011719 -6.949219 2.820312 -7.28125 3.824219 -7.28125 C 4.699219 -7.28125 5.410156 -7.023438 5.957031 -6.503906 C 6.28125 -6.199219 6.527344 -5.757812 6.6875 -5.1875 L 5.257812 -4.84375 C 5.175781 -5.214844 4.996094 -5.507812 4.730469 -5.722656 C 4.460938 -5.9375 4.132812 -6.046875 3.75 -6.046875 C 3.21875 -6.046875 2.789062 -5.855469 2.457031 -5.472656 C 2.128906 -5.09375 1.960938 -4.476562 1.960938 -3.625 C 1.960938 -2.71875 2.125 -2.074219 2.453125 -1.6875 C 2.777344 -1.304688 3.199219 -1.113281 3.71875 -1.113281 C 4.105469 -1.113281 4.433594 -1.234375 4.710938 -1.480469 C 4.988281 -1.722656 5.1875 -2.109375 5.308594 -2.632812 Z "/>
</g>
<g id="glyph-0-8">
<path d="M 0.71875 -7.15625 L 2.164062 -7.15625 L 2.164062 -3.28125 C 2.164062 -2.664062 2.179688 -2.265625 2.21875 -2.085938 C 2.277344 -1.792969 2.425781 -1.558594 2.660156 -1.378906 C 2.890625 -1.203125 3.210938 -1.113281 3.613281 -1.113281 C 4.023438 -1.113281 4.332031 -1.195312 4.539062 -1.363281 C 4.75 -1.53125 4.875 -1.738281 4.917969 -1.984375 C 4.960938 -2.226562 4.980469 -2.632812 4.980469 -3.199219 L 4.980469 -7.15625 L 6.425781 -7.15625 L 6.425781 -3.398438 C 6.425781 -2.539062 6.386719 -1.933594 6.308594 -1.578125 C 6.230469 -1.222656 6.085938 -0.921875 5.875 -0.679688 C 5.667969 -0.433594 5.386719 -0.238281 5.035156 -0.09375 C 4.683594 0.0507812 4.222656 0.121094 3.65625 0.121094 C 2.972656 0.121094 2.457031 0.0429688 2.101562 -0.113281 C 1.75 -0.273438 1.46875 -0.476562 1.265625 -0.730469 C 1.058594 -0.980469 0.925781 -1.246094 0.859375 -1.523438 C 0.765625 -1.933594 0.71875 -2.539062 0.71875 -3.339844 Z "/>
</g>
<g id="glyph-0-9">
<path d="M 0.359375 -2.328125 L 1.765625 -2.464844 C 1.851562 -1.992188 2.023438 -1.648438 2.28125 -1.425781 C 2.542969 -1.203125 2.890625 -1.09375 3.328125 -1.09375 C 3.796875 -1.09375 4.144531 -1.191406 4.382812 -1.390625 C 4.617188 -1.585938 4.734375 -1.816406 4.734375 -2.078125 C 4.734375 -2.25 4.6875 -2.394531 4.585938 -2.511719 C 4.488281 -2.632812 4.316406 -2.734375 4.066406 -2.820312 C 3.898438 -2.882812 3.511719 -2.984375 2.910156 -3.132812 C 2.136719 -3.328125 1.59375 -3.5625 1.28125 -3.84375 C 0.839844 -4.238281 0.621094 -4.71875 0.621094 -5.28125 C 0.621094 -5.648438 0.722656 -5.988281 0.929688 -6.304688 C 1.136719 -6.625 1.433594 -6.867188 1.824219 -7.03125 C 2.210938 -7.195312 2.683594 -7.28125 3.234375 -7.28125 C 4.132812 -7.28125 4.808594 -7.082031 5.261719 -6.6875 C 5.714844 -6.296875 5.953125 -5.769531 5.976562 -5.113281 L 4.53125 -5.046875 C 4.46875 -5.417969 4.335938 -5.679688 4.132812 -5.84375 C 3.929688 -6.003906 3.625 -6.085938 3.21875 -6.085938 C 2.796875 -6.085938 2.46875 -5.996094 2.230469 -5.824219 C 2.078125 -5.714844 2 -5.566406 2 -5.382812 C 2 -5.210938 2.074219 -5.066406 2.21875 -4.945312 C 2.398438 -4.792969 2.84375 -4.632812 3.546875 -4.46875 C 4.246094 -4.300781 4.769531 -4.128906 5.105469 -3.953125 C 5.441406 -3.773438 5.707031 -3.53125 5.894531 -3.226562 C 6.085938 -2.917969 6.179688 -2.539062 6.179688 -2.085938 C 6.179688 -1.675781 6.066406 -1.289062 5.839844 -0.933594 C 5.613281 -0.574219 5.289062 -0.308594 4.875 -0.132812 C 4.457031 0.0390625 3.9375 0.125 3.316406 0.125 C 2.410156 0.125 1.714844 -0.0820312 1.230469 -0.5 C 0.746094 -0.917969 0.457031 -1.527344 0.359375 -2.328125 Z "/>
</g>
<g id="glyph-0-10">
<path d="M 2.339844 0 L 2.339844 -5.945312 L 0.214844 -5.945312 L 0.214844 -7.15625 L 5.902344 -7.15625 L 5.902344 -5.945312 L 3.785156 -5.945312 L 3.785156 0 Z "/>
</g>
<g id="glyph-0-11">
<path d="M 0.707031 0 L 0.707031 -7.15625 L 2.871094 -7.15625 L 4.171875 -2.273438 L 5.453125 -7.15625 L 7.621094 -7.15625 L 7.621094 0 L 6.28125 0 L 6.28125 -5.632812 L 4.859375 0 L 3.46875 0 L 2.050781 -5.632812 L 2.050781 0 Z "/>
</g>
<g id="glyph-0-12">
<path d="M 7.183594 0 L 5.609375 0 L 4.984375 -1.625 L 2.125 -1.625 L 1.53125 0 L 0 0 L 2.789062 -7.15625 L 4.316406 -7.15625 L 7.183594 0 M 4.523438 -2.832031 L 3.535156 -5.488281 L 2.570312 -2.832031 Z "/>
</g>
<g id="glyph-0-13">
<path d="M 0.683594 0 L 0.683594 -7.15625 L 2.128906 -7.15625 L 2.128906 0 Z "/>
</g>
<g id="glyph-0-14">
<path d="M 0.734375 0 L 0.734375 -7.15625 L 2.179688 -7.15625 L 2.179688 -4.339844 L 5.007812 -4.339844 L 5.007812 -7.15625 L 6.453125 -7.15625 L 6.453125 0 L 5.007812 0 L 5.007812 -3.128906 L 2.179688 -3.128906 L 2.179688 0 Z "/>
</g>
<g id="glyph-0-15">
<path d="M 1.742188 0 L 0.0351562 -7.15625 L 1.515625 -7.15625 L 2.59375 -2.242188 L 3.902344 -7.15625 L 5.621094 -7.15625 L 6.875 -2.15625 L 7.972656 -7.15625 L 9.429688 -7.15625 L 7.691406 0 L 6.15625 0 L 4.730469 -5.351562 L 3.3125 0 Z "/>
</g>
<g id="glyph-0-16">
<path d="M 0.746094 0 L 0.746094 -7.15625 L 2.191406 -7.15625 L 2.191406 -3.980469 L 5.113281 -7.15625 L 7.054688 -7.15625 L 4.359375 -4.371094 L 7.203125 0 L 5.332031 0 L 3.363281 -3.359375 L 2.191406 -2.164062 L 2.191406 0 Z "/>
</g>
</g>
</defs>
<g fill="rgb(100%, 100%, 100%)" fill-opacity="1">
<use xlink:href="#glyph-0-0" x="30" y="29.052734"/>
<use xlink:href="#glyph-0-1" x="37" y="29.052734"/>
<use xlink:href="#glyph-0-2" x="44" y="29.052734"/>
<use xlink:href="#glyph-0-3" x="50" y="29.052734"/>
<use xlink:href="#glyph-0-4" x="58" y="29.052734"/>
<use xlink:href="#glyph-0-1" x="65" y="29.052734"/>
<use xlink:href="#glyph-0-5" x="72" y="29.052734"/>
<use xlink:href="#glyph-0-6" x="75" y="29.052734"/>
<use xlink:href="#glyph-0-5" x="78" y="29.052734"/>
<use xlink:href="#glyph-0-7" x="81" y="29.052734"/>
<use xlink:href="#glyph-0-8" x="88" y="29.052734"/>
<use xlink:href="#glyph-0-9" x="95" y="29.052734"/>
<use xlink:href="#glyph-0-10" x="102" y="29.052734"/>
<use xlink:href="#glyph-0-3" x="108" y="29.052734"/>
<use xlink:href="#glyph-0-11" x="116" y="29.052734"/>
<use xlink:href="#glyph-0-1" x="124" y="29.052734"/>
<use xlink:href="#glyph-0-4" x="131" y="29.052734"/>
<use xlink:href="#glyph-0-5" x="138" y="29.052734"/>
<use xlink:href="#glyph-0-7" x="141" y="29.052734"/>
<use xlink:href="#glyph-0-12" x="148" y="29.052734"/>
<use xlink:href="#glyph-0-4" x="155" y="29.052734"/>
<use xlink:href="#glyph-0-4" x="162" y="29.052734"/>
<use xlink:href="#glyph-0-13" x="169" y="29.052734"/>
<use xlink:href="#glyph-0-1" x="172" y="29.052734"/>
<use xlink:href="#glyph-0-9" x="179" y="29.052734"/>
<use xlink:href="#glyph-0-5" x="186" y="29.052734"/>
<use xlink:href="#glyph-0-10" x="189" y="29.052734"/>
<use xlink:href="#glyph-0-14" x="195" y="29.052734"/>
<use xlink:href="#glyph-0-1" x="202" y="29.052734"/>
<use xlink:href="#glyph-0-5" x="209" y="29.052734"/>
<use xlink:href="#glyph-0-15" x="212" y="29.052734"/>
<use xlink:href="#glyph-0-3" x="221" y="29.052734"/>
<use xlink:href="#glyph-0-4" x="229" y="29.052734"/>
<use xlink:href="#glyph-0-16" x="236" y="29.052734"/>
</g>
</svg>
